<svg xmlns="http://www.w3.org/2000/svg" viewBox="0 0 192 192" width="192" height="192"><defs></defs><g transform="matrix(1,0,0,1,-31.52424608,-31.52424608)">
<g>
	<g transform="matrix(0.986315356,0,0,0.986315356,1.75163442,1.75163442)">
		<g transform="matrix(5.3,0,0,5.3,-4085.090941569,-1785.919390992)">
			<path d="M794.922819,342.661336C805.1063,342.661336 813.378349,350.933386 813.378349,361.116866 C813.378349,371.300347 805.1063,379.572396 794.922819,379.572396 C784.739339,379.572396 776.467289,371.300347 776.467289,361.116866 C776.467289,350.933386 784.739339,342.661336 794.922819,342.661336 Z" transform="matrix(1,0,0,1,0,0)" fill="none" stroke="#000000" stroke-width="2"/>
		</g>
		<g transform="matrix(5.3,0,0,5.3,-4085.090941569,-1785.919390992)">
			<path d="M792.399643,349.583772C798.365643,349.583772 803.21183,354.429959 803.21183,360.395959 C803.21183,366.361959 798.365643,371.208145 792.399643,371.208145 C786.433643,371.208145 781.587457,366.361959 781.587457,360.395959 C781.587457,354.429959 786.433643,349.583772 792.399643,349.583772 Z" fill="none" stroke="#e1245d" stroke-width="2"/>
		</g>
		<g transform="matrix(5.3,0,0,5.3,-4085.090941569,-1785.919390992)">
			<path d="M795.283273,357.187921C797.053419,357.187921 798.491311,358.625812 798.491311,360.395959 C798.491311,362.166105 797.053419,363.603997 795.283273,363.603997 C793.513126,363.603997 792.075235,362.166105 792.075235,360.395959 C792.075235,358.625812 793.513126,357.187921 795.283273,357.187921 Z" fill="#000000"/>
		</g>
		<g transform="matrix(5.3,0,0,5.3,-4085.090941569,-1785.919390992)">
			<path d="M1025.973635,374.567672C1025.973635,374.567672 1040.145848,374.008762 1038.688984,360.395959 " transform="matrix(1,0,0,1,-230.690362269,0)" fill="none" stroke="#e1245d" stroke-width="2" stroke-linecap="round"/>
		</g>
	</g>
</g></g></svg>